<?xml version="1.0" standalone="no"?>
<!DOCTYPE svg PUBLIC "-//W3C//DTD SVG 20010904//EN"
 "http://www.w3.org/TR/2001/REC-SVG-20010904/DTD/svg10.dtd">
<svg version="1.0" xmlns="http://www.w3.org/2000/svg"
 width="2000.000000pt" height="2000.000000pt" viewBox="0 0 2000.000000 2000.000000"
 preserveAspectRatio="xMidYMid meet">
<metadata>
Created by potrace 1.14, written by Peter Selinger 2001-2017
</metadata>
<g transform="translate(0.000000,2000.000000) scale(0.100000,-0.100000)"
fill="#000000" stroke="none">
<path d="M12890 14455 c-19 -7 -44 -16 -55 -21 -11 -4 -23 -6 -27 -6 -5 1 -8
-2 -8 -8 0 -5 -7 -10 -16 -10 -9 0 -30 -6 -47 -14 -18 -7 -63 -26 -102 -41
-38 -15 -79 -31 -90 -36 -68 -29 -145 -57 -145 -52 0 3 -6 1 -13 -5 -6 -6 -36
-20 -65 -31 -55 -22 -56 -21 -19 32 16 24 33 86 19 72 -3 -2 -12 0 -19 7 -17
14 -53 18 -53 7 0 -4 -16 -13 -35 -20 -19 -7 -35 -17 -35 -21 0 -4 -9 -8 -19
-8 -11 0 -21 -3 -23 -7 -1 -5 -63 -38 -135 -74 -73 -37 -131 -63 -128 -59 3 5
1 11 -4 15 -6 3 -8 12 -4 20 3 9 0 22 -7 30 -7 8 -9 15 -4 15 4 0 -1 6 -11 14
-23 17 -69 7 -129 -28 l-44 -26 23 89 c19 74 20 91 9 106 -11 15 -11 21 -1 33
10 13 8 14 -17 8 -17 -4 -42 -16 -57 -27 -15 -10 -32 -19 -37 -19 -6 0 -12 -4
-14 -9 -4 -10 -227 -161 -238 -161 -5 0 -10 -3 -12 -7 -6 -15 -175 -124 -199
-129 -13 -3 -42 -7 -64 -9 -22 -3 -56 -8 -75 -11 -19 -4 -47 -7 -62 -8 -16 0
-28 -3 -28 -6 0 -3 -8 -6 -17 -7 -10 0 -29 -4 -43 -7 -14 -3 -38 -8 -55 -10
-16 -3 -61 -12 -100 -21 -72 -17 -92 -22 -135 -30 -14 -3 -34 -7 -45 -9 -11
-2 -58 -17 -105 -32 -47 -15 -89 -29 -95 -30 -27 -7 -171 -59 -175 -64 -4 -4
-106 -42 -145 -54 -5 -2 -23 -8 -38 -14 -16 -7 -31 -12 -33 -12 -15 0 -371
-174 -429 -210 -19 -12 -35 -18 -35 -15 0 4 -7 2 -15 -5 -8 -7 -43 -26 -77
-42 -35 -16 -65 -32 -68 -36 -3 -4 -23 -16 -45 -27 -22 -11 -42 -22 -45 -26
-7 -8 -44 -22 -53 -20 -5 1 -6 -3 -2 -9 3 -5 -4 -14 -17 -19 -13 -5 -74 -43
-137 -85 -63 -42 -118 -76 -123 -76 -4 0 -8 -4 -8 -10 0 -5 -6 -10 -14 -10 -8
0 -16 -3 -18 -8 -3 -7 -238 -174 -348 -247 -42 -28 -67 -47 -94 -70 -6 -6 -36
-30 -66 -54 -30 -25 -59 -49 -65 -55 -5 -6 -50 -44 -100 -85 -49 -41 -97 -82
-106 -90 -10 -9 -36 -32 -60 -51 -23 -19 -58 -50 -77 -68 l-35 -33 -35 33
c-20 18 -47 45 -61 59 -14 14 -57 50 -96 80 -38 29 -79 61 -89 71 -11 10 -26
18 -33 18 -7 0 -13 4 -13 8 0 4 -12 15 -27 24 -16 9 -41 28 -58 42 -16 14 -35
26 -42 26 -6 0 -13 4 -15 8 -4 11 -115 82 -127 82 -5 0 -11 4 -13 8 -4 11 -81
57 -90 54 -5 -1 -8 1 -8 6 0 4 -33 8 -73 9 -72 2 -131 8 -177 19 -14 3 -36 7
-50 10 -14 3 -33 7 -42 10 -9 3 -26 7 -37 9 -73 14 -157 41 -231 74 -123 56
-148 64 -182 63 -53 -1 -141 -34 -203 -76 -63 -42 -175 -148 -175 -166 0 -5
-4 -10 -9 -10 -5 0 -13 -10 -17 -22 -3 -13 -12 -30 -19 -38 -8 -8 -14 -18 -14
-23 0 -4 -14 -44 -31 -90 -18 -45 -34 -90 -36 -100 -2 -11 -8 -25 -15 -33 -6
-8 -9 -14 -5 -14 3 0 -3 -24 -14 -52 -11 -29 -20 -58 -20 -65 0 -6 -5 -24 -12
-40 -6 -15 -12 -30 -13 -33 -10 -38 -92 -240 -142 -350 -14 -30 -29 -64 -33
-75 -49 -122 -66 -161 -72 -163 -5 -2 -8 -9 -8 -16 0 -7 -22 -49 -49 -94 -27
-45 -47 -83 -45 -85 3 -2 -2 -10 -11 -17 -8 -7 -15 -18 -15 -24 0 -6 -10 -24
-23 -39 -81 -104 -121 -153 -132 -162 -40 -34 -45 -59 -41 -187 2 -70 7 -131
10 -137 4 -6 9 -32 12 -58 3 -27 8 -55 11 -63 3 -8 18 -66 34 -128 15 -62 40
-143 54 -180 39 -102 63 -164 76 -197 7 -16 13 -34 13 -40 1 -5 11 -32 24 -59
12 -28 25 -61 29 -75 3 -14 11 -35 17 -46 5 -11 11 -22 12 -25 1 -3 5 -15 9
-27 4 -13 11 -23 16 -23 5 0 9 -6 9 -13 0 -7 14 -35 32 -63 18 -27 31 -52 30
-56 -1 -5 2 -8 8 -8 17 0 11 -32 -8 -49 -17 -15 -34 -47 -29 -55 1 -1 -3 -9
-9 -17 -15 -19 -11 -162 4 -167 7 -2 12 -8 12 -13 0 -16 47 -63 105 -104 31
-22 66 -48 77 -57 12 -10 25 -18 31 -18 5 0 22 -11 39 -25 16 -14 26 -25 21
-25 -4 0 5 -7 21 -15 38 -20 53 -14 105 39 l43 44 49 -29 c27 -16 49 -26 49
-23 0 4 7 0 17 -7 9 -8 17 -13 17 -11 1 2 10 0 21 -3 31 -11 50 -16 52 -16 2
0 17 -5 35 -10 18 -5 53 -12 78 -15 25 -3 54 -8 65 -11 23 -6 33 -7 100 -18
28 -4 59 -9 70 -11 94 -17 385 -21 806 -10 l277 8 -12 -36 c-6 -20 -15 -36
-19 -36 -5 0 -5 -5 -2 -10 4 -6 1 -17 -5 -25 -7 -8 -10 -15 -6 -15 3 0 0 -15
-7 -32 -8 -18 -14 -36 -15 -41 -6 -33 -37 -126 -48 -144 -8 -13 -13 -23 -10
-23 2 0 -4 -28 -15 -62 -19 -64 -24 -96 -13 -85 4 3 12 0 20 -7 10 -10 24 -12
48 -6 19 4 37 5 40 2 4 -3 6 -1 6 5 0 6 9 13 20 16 22 6 22 9 0 -103 -24 -120
-25 -130 -15 -155 5 -11 15 -25 23 -31 11 -8 13 -21 7 -50 -4 -21 -9 -50 -11
-64 -3 -14 -8 -34 -11 -45 -4 -11 -8 -31 -9 -45 -1 -14 -5 -36 -8 -50 -4 -14
-9 -40 -12 -59 -2 -19 -6 -37 -9 -39 -2 -3 4 -17 14 -31 21 -29 21 -45 -4
-211 -3 -25 -8 -56 -11 -70 -2 -14 -6 -56 -10 -95 -5 -74 5 -106 28 -89 20 16
71 17 61 2 -4 -7 -9 -29 -11 -48 -5 -58 -10 -632 -4 -652 7 -27 21 -12 33 38
6 24 15 44 20 44 10 0 50 37 48 45 -1 5 9 40 15 55 2 3 6 17 10 33 5 15 11 27
15 27 4 0 8 6 8 13 0 6 9 34 20 61 l20 50 33 -105 c18 -57 35 -113 36 -124 2
-11 10 -47 19 -80 13 -44 14 -64 6 -77 -6 -9 -7 -19 -3 -22 5 -3 7 -36 6 -73
-10 -362 -16 -538 -19 -648 -3 -71 -7 -206 -10 -300 -3 -93 -7 -228 -10 -300
-3 -71 -8 -188 -10 -260 -5 -158 -10 -207 -30 -329 -7 -43 -7 -41 -30 -146 -9
-41 -18 -82 -20 -90 -9 -41 -30 -114 -58 -200 -17 -52 -32 -99 -33 -105 -4
-20 -43 -112 -77 -182 -19 -39 -32 -74 -29 -77 3 -3 1 -6 -5 -6 -5 0 -20 -24
-33 -52 -13 -29 -31 -65 -41 -79 -10 -14 -16 -29 -12 -33 3 -3 1 -6 -5 -6 -6
0 -13 -14 -17 -30 -4 -17 -10 -30 -15 -30 -4 0 -10 -8 -13 -17 -5 -17 -44 -87
-60 -108 -4 -5 -23 -34 -42 -63 -47 -69 -71 -96 -200 -225 -111 -110 -214
-197 -234 -197 -6 0 -11 -4 -11 -8 0 -8 -76 -61 -125 -88 -29 -16 -98 -55
-110 -62 -5 -4 -12 -7 -15 -8 -14 -3 -46 -18 -50 -25 -3 -4 -14 -9 -25 -11
-11 -1 -29 -11 -39 -21 -11 -9 -25 -16 -30 -15 -6 0 -46 -15 -89 -35 -43 -21
-81 -37 -84 -37 -3 0 -19 -7 -36 -14 -30 -14 -121 -42 -282 -87 -38 -11 -81
-24 -95 -29 -14 -6 -35 -12 -47 -15 -13 -3 -32 -7 -43 -10 -11 -3 -28 -7 -37
-9 -10 -3 -56 -16 -103 -31 -78 -23 -107 -32 -135 -39 -5 -1 -19 -7 -30 -13
-11 -6 -24 -12 -30 -13 -5 -1 -21 -7 -35 -13 -14 -6 -27 -11 -30 -12 -48 -12
-462 -232 -480 -255 -3 -3 -23 -17 -45 -30 -122 -74 -296 -237 -413 -386 -34
-44 -67 -84 -72 -91 -6 -7 -10 -15 -10 -18 0 -9 -82 -129 -94 -137 -7 -5 -7
-8 -1 -8 6 0 6 -3 -1 -8 -5 -4 -32 -47 -59 -97 -84 -157 -117 -219 -145 -270
-34 -65 -153 -353 -153 -371 0 -8 -4 -14 -9 -14 -4 0 -8 -9 -8 -20 0 -11 -4
-20 -8 -20 -9 0 -14 -27 -16 -85 -1 -34 2 -40 19 -40 19 -1 80 28 99 46 6 5
13 9 17 9 8 0 -34 -124 -44 -128 -4 -2 -5 -7 -2 -12 4 -6 -38 -144 -100 -330
-8 -25 -17 -54 -19 -66 -2 -11 -11 -37 -20 -57 -8 -20 -12 -37 -9 -37 3 0 0
-6 -6 -14 -6 -8 -11 -18 -10 -22 1 -5 -3 -22 -10 -38 -16 -39 -22 -118 -9
-110 5 3 23 7 40 8 18 1 38 12 49 24 9 12 19 22 22 22 2 0 -2 -26 -9 -57 -7
-32 -15 -69 -18 -83 -9 -47 -15 -72 -21 -91 -6 -19 66 -19 4913 -19 l4920 0 1
23 c6 106 5 666 -1 679 -6 12 -2 24 10 36 17 17 19 32 7 82 -2 8 -4 16 -5 18
-2 1 -3 5 -5 10 -1 4 -4 14 -8 22 -7 18 -16 64 -22 108 -2 18 -7 37 -10 42 -4
6 -8 23 -10 38 -3 15 -7 38 -10 52 -3 14 -8 42 -11 63 -3 21 -9 49 -14 63 -5
13 -8 24 -5 24 2 0 -1 15 -6 33 -5 17 -12 52 -15 77 -3 25 -10 50 -16 57 -6 7
-8 13 -6 13 3 0 1 19 -3 43 -5 23 -12 60 -15 82 -4 22 -10 51 -15 63 -5 13 -7
27 -4 32 3 5 1 11 -4 14 -5 3 -8 22 -7 41 1 19 -2 36 -5 37 -4 2 -10 21 -13
43 -7 44 -33 152 -43 175 -3 8 -7 22 -9 32 -2 9 -14 42 -26 75 -12 32 -22 60
-23 63 -1 8 -60 125 -65 130 -3 3 -17 21 -30 40 -25 37 -125 145 -174 189 -16
14 -40 36 -53 49 -12 13 -23 21 -23 18 0 -3 -13 7 -28 22 -16 15 -46 41 -67
57 -20 17 -58 47 -84 67 -25 21 -64 47 -86 59 -22 12 -48 28 -57 37 -10 8 -18
12 -18 7 0 -4 -6 -3 -12 3 -25 20 -332 179 -355 184 -5 1 -29 12 -54 25 -26
13 -52 23 -58 23 -6 0 -11 5 -11 10 0 6 -3 9 -7 8 -10 -2 -46 13 -132 56 -39
19 -71 32 -71 28 0 -4 -4 -2 -8 3 -6 9 -199 108 -212 110 -3 0 -12 5 -20 10
-23 14 -209 106 -215 106 -8 -1 -118 71 -139 91 -11 10 -26 18 -33 18 -8 0
-11 5 -8 10 3 6 -1 10 -9 10 -9 0 -16 5 -16 10 0 6 -7 10 -15 10 -8 0 -20 9
-27 20 -7 11 -17 20 -21 20 -5 0 -23 11 -41 25 -17 14 -44 35 -60 47 -77 60
-146 123 -146 132 0 3 -8 15 -17 26 -19 21 -125 214 -146 263 -6 15 -15 27
-20 27 -4 0 -5 5 -2 10 3 6 2 10 -3 10 -5 0 -13 10 -17 23 -9 27 -8 24 -26 67
-27 61 -50 167 -64 295 -11 98 -13 111 -19 162 -22 171 -21 551 1 587 6 9 166
2 183 -9 5 -3 10 -1 10 5 0 6 4 8 10 5 5 -3 47 -8 92 -11 46 -2 119 -6 163 -9
126 -8 359 -15 612 -18 128 -1 233 -6 233 -10 0 -5 5 -5 12 -1 13 8 157 9 165
1 3 -3 16 -2 29 3 13 5 25 6 28 2 5 -9 533 -8 542 0 3 4 19 2 35 -2 16 -5 31
-5 33 -2 5 9 59 8 74 -2 6 -3 13 -2 17 4 4 7 12 7 24 0 10 -5 21 -7 24 -3 3 3
30 7 59 8 29 2 69 10 88 18 19 9 37 15 40 16 8 0 120 47 198 82 23 10 49 19
57 19 8 0 15 5 15 12 0 6 3 8 6 5 4 -4 21 6 39 21 43 37 63 52 110 87 22 16
42 32 45 35 3 3 22 16 42 30 21 14 38 28 38 33 0 4 7 7 15 7 8 0 15 3 15 8 0
4 21 21 45 37 25 17 45 33 45 38 0 11 38 47 50 47 6 0 10 3 10 8 0 4 21 29 45
55 25 26 43 52 40 58 -4 5 -2 9 3 9 21 0 81 139 86 198 3 31 8 73 10 92 34
255 51 847 34 1180 -5 84 -35 226 -58 271 -8 16 -32 99 -32 109 0 3 -3 10 -8
15 -5 6 -23 53 -40 105 -17 52 -37 98 -43 102 -7 4 -9 8 -4 8 4 0 -7 28 -25
63 -18 34 -32 65 -33 68 0 5 -45 104 -121 264 -20 44 -38 85 -40 90 -1 6 -23
62 -49 125 -55 135 -84 215 -91 250 -11 55 -2 615 10 642 7 16 89 68 107 68 5
0 17 6 26 14 41 33 114 86 119 86 4 0 176 134 211 165 6 5 40 35 75 65 34 30
87 79 115 107 29 29 53 51 53 49 0 -3 24 21 53 52 46 49 76 95 74 112 -1 9 57
104 90 149 31 40 148 161 157 161 2 0 21 16 42 35 20 19 40 33 42 30 3 -3 11
4 19 15 8 11 19 20 25 20 5 0 27 14 48 30 21 17 42 30 48 30 5 0 12 7 16 15 3
8 11 15 19 15 7 0 29 14 47 30 18 17 30 30 25 30 -5 0 1 9 13 20 12 12 22 27
22 35 0 7 4 15 9 17 14 5 114 166 146 236 16 34 34 62 39 62 5 0 6 3 3 7 -4 3
-1 16 6 27 15 23 44 106 51 146 3 14 5 26 7 28 1 1 2 5 3 10 9 35 17 71 22 92
16 78 22 269 9 291 -5 8 -10 19 -11 24 -1 6 -10 33 -20 60 -23 67 -27 79 -29
85 -17 65 -46 150 -82 250 -26 69 -54 145 -63 170 -9 25 -21 55 -28 68 -7 12
-11 22 -8 22 3 0 -8 28 -24 63 -15 34 -30 71 -32 82 -1 11 -6 22 -9 25 -3 3
-18 37 -33 76 -25 66 -70 124 -96 124 -5 0 -10 5 -10 10 0 6 -9 10 -20 10 -11
0 -20 5 -20 10 0 6 -8 10 -18 10 -10 0 -22 3 -26 8 -4 4 -12 8 -17 8 -5 1 -10
2 -11 3 -18 14 -217 20 -293 9 -101 -14 -298 -82 -337 -116 -10 -8 -18 -12
-18 -8 0 7 -114 -62 -166 -101 -17 -13 -39 -23 -48 -23 -9 0 -14 -4 -11 -10 3
-5 -1 -10 -10 -10 -8 0 -18 -7 -21 -15 -4 -8 -10 -15 -16 -15 -10 0 -67 -41
-106 -77 -28 -26 -47 -21 -32 7 6 10 11 30 12 44 1 15 5 26 8 26 3 0 6 8 6 18
1 15 7 56 19 132 3 14 7 50 10 80 12 113 17 156 20 185 8 69 18 244 17 290 -1
66 -6 88 -20 93 -7 2 -12 8 -12 14 0 12 -61 102 -72 106 -4 2 -8 9 -8 15 0 12
-71 120 -82 125 -5 2 -8 8 -8 13 0 9 -165 256 -181 269 -3 3 -30 46 -60 95
-30 50 -59 96 -66 103 -24 25 -24 51 0 89 26 40 29 99 8 113 -7 4 -10 19 -7
37 8 43 -22 55 -89 37 -50 -14 -71 -20 -112 -29 -54 -12 -80 -19 -103 -28 -20
-7 -139 -37 -165 -41 -11 -2 -20 -4 -20 -5 0 -2 -7 -4 -15 -6 -8 -1 -50 -12
-93 -23 l-78 -20 135 131 c97 96 136 140 141 163 6 30 5 31 -32 32 -21 0 -54
-5 -73 -13z"/>
</g>
</svg>
